<svg id="visual" viewBox="0 0 1600 1200" width="1600" height="1200" xmlns="http://www.w3.org/2000/svg" xmlns:xlink="http://www.w3.org/1999/xlink" version="1.1"><rect x="0" y="0" width="1600" height="1200" fill="#FFFFFF"></rect><defs><linearGradient id="grad1_0" x1="25%" y1="0%" x2="100%" y2="100%"><stop offset="23.333333333333336%" stop-color="#ffffff" stop-opacity="1"></stop><stop offset="76.66666666666666%" stop-color="#ffffff" stop-opacity="1"></stop></linearGradient></defs><defs><linearGradient id="grad2_0" x1="0%" y1="0%" x2="75%" y2="100%"><stop offset="23.333333333333336%" stop-color="#ffffff" stop-opacity="1"></stop><stop offset="76.66666666666666%" stop-color="#ffffff" stop-opacity="1"></stop></linearGradient></defs><g transform="translate(1600, 0)"><path d="M0 900C-92.8 887.3 -185.6 874.5 -273.2 840.7C-360.7 806.9 -443 752.1 -495.5 682C-548 611.9 -570.9 526.5 -635.1 461.4C-699.3 396.3 -804.9 351.6 -856 278.1C-907 204.6 -903.5 102.3 -900 0L0 0Z" fill="#0066FF"></path></g><g transform="translate(0, 1200)"><path d="M0 -900C72.2 -826.7 144.4 -753.3 240.1 -739C335.8 -724.6 455 -769.2 529 -728.1C603.1 -687 632 -560.3 631 -458.5C630.1 -356.7 599.3 -279.9 639.1 -207.7C679 -135.4 789.5 -67.7 900 0L0 0Z" fill="#0066FF"></path></g></svg>