<svg id="visual" viewBox="0 0 1600 1200" width="1600" height="1200" xmlns="http://www.w3.org/2000/svg" xmlns:xlink="http://www.w3.org/1999/xlink" version="1.1"><rect x="0" y="0" width="1600" height="1200" fill="#FFFFFF"></rect><path d="M0 290L44.5 359.8C89 429.7 178 569.3 266.8 562.5C355.7 555.7 444.3 402.3 533.2 376C622 349.7 711 450.3 800 600C889 749.7 978 948.3 1066.8 937.5C1155.7 926.7 1244.3 706.3 1333.2 610.2C1422 514 1511 542 1555.5 556L1600 570L1600 1201L1555.5 1201C1511 1201 1422 1201 1333.2 1201C1244.3 1201 1155.7 1201 1066.8 1201C978 1201 889 1201 800 1201C711 1201 622 1201 533.2 1201C444.3 1201 355.7 1201 266.8 1201C178 1201 89 1201 44.5 1201L0 1201Z" fill="#0066FF" stroke-linecap="round" stroke-linejoin="miter"></path></svg>